# xmcd
#
# Track frame offsets:
#	150
#	11795
#	25700
#	36755
#	48605
#	65552
#	77965
#	93950
#	111012
#	120729
#	129257
#	141190
#
# Disc length: 2074 seconds
#
# Revision: 0
# Processed by: cddbd v1.5.1PL0 Copyright (c) Steve Scherf et al.
# Submitted via: EasyCDDAExtractor 4.6.9.1
#
DISCID=9e08180c
DTITLE=The Masters - Adcock, Baker, Graves, McReynolds - Laid Back
DYEAR=1997
DGENRE=Bluegrass
TTITLE0=Draggin' The Cow
TTITLE1=Wayfarin' Stranger
TTITLE2=Stoney Creek
TTITLE3=Evelina
TTITLE4=Happy Time Waltz
TTITLE5=Battle Hymn Of The Republic
TTITLE6=Jerusalem Ridge
TTITLE7=What A Friend We Have In Jesus
TTITLE8=St. Anne's Reel
TTITLE9=Roanoake
TTITLE10=Foggy Mountain Rock
TTITLE11=Bells Of St. Mary's
EXTD=
EXTT0=
EXTT1=
EXTT2=
EXTT3=
EXTT4=
EXTT5=
EXTT6=
EXTT7=
EXTT8=
EXTT9=
EXTT10=
EXTT11=
PLAYORDER=
